<mxfile host="app.diagrams.net" modified="2020-08-24T21:29:12.121Z" agent="5.0 (Macintosh; Intel Mac OS X 10_14_6) AppleWebKit/537.36 (KHTML, like Gecko) Chrome/84.0.4147.125 Safari/537.36" etag="PQkCPoBnWk2rPTsN27F9" version="13.6.5" type="github">
  <diagram id="SYxd8Ys70OX240iU2f4M" name="Page-1">
    <mxGraphModel dx="1178" dy="528" grid="1" gridSize="10" guides="1" tooltips="1" connect="1" arrows="1" fold="1" page="1" pageScale="1" pageWidth="827" pageHeight="1169" math="0" shadow="0">
      <root>
        <mxCell id="0" />
        <mxCell id="1" parent="0" />
        <mxCell id="ww7fI8qHayu6yvwGWcHs-1" value="Server" style="rounded=1;whiteSpace=wrap;html=1;" vertex="1" parent="1">
          <mxGeometry x="55" y="80" width="170" height="60" as="geometry" />
        </mxCell>
        <mxCell id="ww7fI8qHayu6yvwGWcHs-15" style="edgeStyle=orthogonalEdgeStyle;rounded=0;orthogonalLoop=1;jettySize=auto;html=1;exitX=0.5;exitY=0;exitDx=0;exitDy=0;entryX=0.5;entryY=1;entryDx=0;entryDy=0;startArrow=classic;startFill=1;" edge="1" parent="1" source="ww7fI8qHayu6yvwGWcHs-2" target="ww7fI8qHayu6yvwGWcHs-1">
          <mxGeometry relative="1" as="geometry" />
        </mxCell>
        <mxCell id="ww7fI8qHayu6yvwGWcHs-2" value="JSON file" style="text;html=1;strokeColor=none;fillColor=none;align=center;verticalAlign=middle;whiteSpace=wrap;rounded=0;" vertex="1" parent="1">
          <mxGeometry x="90" y="210" width="100" height="20" as="geometry" />
        </mxCell>
        <mxCell id="ww7fI8qHayu6yvwGWcHs-14" style="edgeStyle=orthogonalEdgeStyle;rounded=0;orthogonalLoop=1;jettySize=auto;html=1;exitX=0;exitY=0.5;exitDx=0;exitDy=0;startArrow=classic;startFill=1;" edge="1" parent="1" source="ww7fI8qHayu6yvwGWcHs-4" target="ww7fI8qHayu6yvwGWcHs-2">
          <mxGeometry relative="1" as="geometry" />
        </mxCell>
        <mxCell id="ww7fI8qHayu6yvwGWcHs-4" value="Data Service" style="rounded=1;whiteSpace=wrap;html=1;" vertex="1" parent="1">
          <mxGeometry x="240" y="310" width="160" height="50" as="geometry" />
        </mxCell>
        <mxCell id="ww7fI8qHayu6yvwGWcHs-5" value="App Component" style="rounded=1;whiteSpace=wrap;html=1;" vertex="1" parent="1">
          <mxGeometry x="241" y="230" width="619" height="50" as="geometry" />
        </mxCell>
        <mxCell id="ww7fI8qHayu6yvwGWcHs-10" style="edgeStyle=orthogonalEdgeStyle;rounded=0;orthogonalLoop=1;jettySize=auto;html=1;exitX=0.25;exitY=1;exitDx=0;exitDy=0;entryX=0.25;entryY=0;entryDx=0;entryDy=0;" edge="1" parent="1" source="ww7fI8qHayu6yvwGWcHs-6" target="ww7fI8qHayu6yvwGWcHs-7">
          <mxGeometry relative="1" as="geometry" />
        </mxCell>
        <mxCell id="ww7fI8qHayu6yvwGWcHs-12" style="edgeStyle=orthogonalEdgeStyle;rounded=0;orthogonalLoop=1;jettySize=auto;html=1;exitX=0.75;exitY=0;exitDx=0;exitDy=0;entryX=0.75;entryY=1;entryDx=0;entryDy=0;" edge="1" parent="1" source="ww7fI8qHayu6yvwGWcHs-6" target="ww7fI8qHayu6yvwGWcHs-8">
          <mxGeometry relative="1" as="geometry" />
        </mxCell>
        <mxCell id="ww7fI8qHayu6yvwGWcHs-6" value="Document Component" style="rounded=1;whiteSpace=wrap;html=1;" vertex="1" parent="1">
          <mxGeometry x="451" y="470" width="160" height="50" as="geometry" />
        </mxCell>
        <mxCell id="ww7fI8qHayu6yvwGWcHs-11" style="edgeStyle=orthogonalEdgeStyle;rounded=0;orthogonalLoop=1;jettySize=auto;html=1;exitX=0.75;exitY=0;exitDx=0;exitDy=0;entryX=0.75;entryY=1;entryDx=0;entryDy=0;" edge="1" parent="1" source="ww7fI8qHayu6yvwGWcHs-7" target="ww7fI8qHayu6yvwGWcHs-6">
          <mxGeometry relative="1" as="geometry" />
        </mxCell>
        <mxCell id="ww7fI8qHayu6yvwGWcHs-13" style="edgeStyle=orthogonalEdgeStyle;rounded=0;orthogonalLoop=1;jettySize=auto;html=1;exitX=0;exitY=0.5;exitDx=0;exitDy=0;entryX=1;entryY=0.5;entryDx=0;entryDy=0;" edge="1" parent="1" source="ww7fI8qHayu6yvwGWcHs-7" target="ww7fI8qHayu6yvwGWcHs-4">
          <mxGeometry relative="1" as="geometry" />
        </mxCell>
        <mxCell id="ww7fI8qHayu6yvwGWcHs-7" value="Document Service" style="rounded=1;whiteSpace=wrap;html=1;" vertex="1" parent="1">
          <mxGeometry x="451" y="590" width="160" height="50" as="geometry" />
        </mxCell>
        <mxCell id="ww7fI8qHayu6yvwGWcHs-9" style="edgeStyle=orthogonalEdgeStyle;rounded=0;orthogonalLoop=1;jettySize=auto;html=1;exitX=0.25;exitY=1;exitDx=0;exitDy=0;entryX=0.25;entryY=0;entryDx=0;entryDy=0;" edge="1" parent="1" source="ww7fI8qHayu6yvwGWcHs-8" target="ww7fI8qHayu6yvwGWcHs-6">
          <mxGeometry relative="1" as="geometry" />
        </mxCell>
        <mxCell id="ww7fI8qHayu6yvwGWcHs-8" value="&lt;b&gt;Document Template&lt;/b&gt;&lt;br&gt;Responsible for rendering&lt;br&gt;the JSON data as a document on the browser" style="rounded=1;whiteSpace=wrap;html=1;" vertex="1" parent="1">
          <mxGeometry x="451" y="310" width="160" height="90" as="geometry" />
        </mxCell>
        <mxCell id="ww7fI8qHayu6yvwGWcHs-16" value="Document Template" style="rounded=1;whiteSpace=wrap;html=1;" vertex="1" parent="1">
          <mxGeometry x="700" y="310" width="160" height="50" as="geometry" />
        </mxCell>
      </root>
    </mxGraphModel>
  </diagram>
</mxfile>
